<mxfile host="Electron" modified="2023-11-15T14:18:17.373Z" agent="Mozilla/5.0 (Windows NT 10.0; Win64; x64) AppleWebKit/537.36 (KHTML, like Gecko) draw.io/22.0.2 Chrome/114.0.5735.289 Electron/25.8.4 Safari/537.36" etag="dNu5PynqJa3T5j-vCjVl" version="22.0.2" type="device">
  <diagram name="Strona-1" id="h2WLkj2qyGADKgaHyaSV">
    <mxGraphModel dx="1418" dy="827" grid="1" gridSize="10" guides="1" tooltips="1" connect="1" arrows="1" fold="1" page="1" pageScale="1" pageWidth="827" pageHeight="1169" math="0" shadow="0">
      <root>
        <mxCell id="0" />
        <mxCell id="1" parent="0" />
        <mxCell id="-zxrhz5xmNToXwiu2Zdy-1" value="&lt;b&gt;Lista miejscowości:&lt;/b&gt;" style="text;html=1;strokeColor=none;fillColor=none;align=left;verticalAlign=middle;whiteSpace=wrap;rounded=0;" vertex="1" parent="1">
          <mxGeometry x="30" y="265" width="190" height="30" as="geometry" />
        </mxCell>
        <mxCell id="-zxrhz5xmNToXwiu2Zdy-2" value="" style="endArrow=none;html=1;rounded=0;" edge="1" parent="1">
          <mxGeometry width="50" height="50" relative="1" as="geometry">
            <mxPoint x="10" y="220" as="sourcePoint" />
            <mxPoint x="860" y="220" as="targetPoint" />
          </mxGeometry>
        </mxCell>
        <mxCell id="-zxrhz5xmNToXwiu2Zdy-3" value="" style="endArrow=none;html=1;rounded=0;" edge="1" parent="1">
          <mxGeometry width="50" height="50" relative="1" as="geometry">
            <mxPoint x="10" y="810" as="sourcePoint" />
            <mxPoint x="10" y="220" as="targetPoint" />
          </mxGeometry>
        </mxCell>
        <mxCell id="-zxrhz5xmNToXwiu2Zdy-4" value="" style="endArrow=none;html=1;rounded=0;" edge="1" parent="1">
          <mxGeometry width="50" height="50" relative="1" as="geometry">
            <mxPoint x="10" y="250" as="sourcePoint" />
            <mxPoint x="860" y="250" as="targetPoint" />
          </mxGeometry>
        </mxCell>
        <mxCell id="-zxrhz5xmNToXwiu2Zdy-5" value="" style="endArrow=none;html=1;rounded=0;" edge="1" parent="1">
          <mxGeometry width="50" height="50" relative="1" as="geometry">
            <mxPoint x="860" y="810" as="sourcePoint" />
            <mxPoint x="859.58" y="220" as="targetPoint" />
          </mxGeometry>
        </mxCell>
        <mxCell id="-zxrhz5xmNToXwiu2Zdy-6" value="" style="html=1;verticalLabelPosition=bottom;align=center;labelBackgroundColor=#ffffff;verticalAlign=top;strokeWidth=2;shadow=0;dashed=0;shape=mxgraph.ios7.icons.home;" vertex="1" parent="1">
          <mxGeometry x="790" y="228.75" width="20" height="12.5" as="geometry" />
        </mxCell>
        <mxCell id="-zxrhz5xmNToXwiu2Zdy-7" value="" style="html=1;verticalLabelPosition=bottom;align=center;labelBackgroundColor=#ffffff;verticalAlign=top;strokeWidth=2;shadow=0;dashed=0;shape=mxgraph.ios7.icons.back;fontFamily=Helvetica;fontSize=12;" vertex="1" parent="1">
          <mxGeometry x="840" y="230" width="11.76" height="10" as="geometry" />
        </mxCell>
        <mxCell id="-zxrhz5xmNToXwiu2Zdy-8" value="" style="html=1;verticalLabelPosition=bottom;align=center;labelBackgroundColor=#ffffff;verticalAlign=top;strokeWidth=2;shadow=0;dashed=0;shape=mxgraph.ios7.icons.reload;fontFamily=Helvetica;fontSize=12;" vertex="1" parent="1">
          <mxGeometry x="820" y="230" width="10" height="10" as="geometry" />
        </mxCell>
        <mxCell id="-zxrhz5xmNToXwiu2Zdy-9" value="[1]" style="text;html=1;strokeColor=none;fillColor=none;align=center;verticalAlign=middle;whiteSpace=wrap;rounded=0;fontSize=12;fontFamily=Helvetica;fontColor=default;" vertex="1" parent="1">
          <mxGeometry x="870" y="228.75" width="20" height="10" as="geometry" />
        </mxCell>
        <mxCell id="-zxrhz5xmNToXwiu2Zdy-10" value="" style="endArrow=classic;html=1;rounded=0;fontFamily=Helvetica;fontSize=12;fontColor=default;exitX=0;exitY=0.75;exitDx=0;exitDy=0;" edge="1" parent="1" source="-zxrhz5xmNToXwiu2Zdy-9" target="-zxrhz5xmNToXwiu2Zdy-7">
          <mxGeometry width="50" height="50" relative="1" as="geometry">
            <mxPoint x="790" y="200" as="sourcePoint" />
            <mxPoint x="840" y="150" as="targetPoint" />
          </mxGeometry>
        </mxCell>
        <mxCell id="-zxrhz5xmNToXwiu2Zdy-11" value="" style="shape=flexArrow;endArrow=classic;html=1;rounded=0;fontFamily=Helvetica;fontSize=12;fontColor=default;startWidth=9.30232558139535;endWidth=9.30232558139535;startSize=5.425581395348837;endSize=2.8674418604651164;width=4.651162790697675;" edge="1" parent="1">
          <mxGeometry width="50" height="50" relative="1" as="geometry">
            <mxPoint x="780" y="234.88" as="sourcePoint" />
            <mxPoint x="760" y="234.88" as="targetPoint" />
          </mxGeometry>
        </mxCell>
        <mxCell id="-zxrhz5xmNToXwiu2Zdy-12" value="[2]" style="text;html=1;strokeColor=none;fillColor=none;align=center;verticalAlign=middle;whiteSpace=wrap;rounded=0;fontSize=12;fontFamily=Helvetica;fontColor=default;" vertex="1" parent="1">
          <mxGeometry x="830" y="200" width="40" height="10" as="geometry" />
        </mxCell>
        <mxCell id="-zxrhz5xmNToXwiu2Zdy-13" value="" style="endArrow=classic;html=1;rounded=0;fontFamily=Helvetica;fontSize=12;fontColor=default;exitX=0.25;exitY=1;exitDx=0;exitDy=0;entryX=1;entryY=0;entryDx=0;entryDy=0;entryPerimeter=0;" edge="1" parent="1" source="-zxrhz5xmNToXwiu2Zdy-12" target="-zxrhz5xmNToXwiu2Zdy-8">
          <mxGeometry width="50" height="50" relative="1" as="geometry">
            <mxPoint x="780" y="230" as="sourcePoint" />
            <mxPoint x="830" y="180" as="targetPoint" />
          </mxGeometry>
        </mxCell>
        <mxCell id="-zxrhz5xmNToXwiu2Zdy-14" value="[3]" style="text;html=1;strokeColor=none;fillColor=none;align=center;verticalAlign=middle;whiteSpace=wrap;rounded=0;fontSize=12;fontFamily=Helvetica;fontColor=default;" vertex="1" parent="1">
          <mxGeometry x="790" y="200" width="20" height="10" as="geometry" />
        </mxCell>
        <mxCell id="-zxrhz5xmNToXwiu2Zdy-15" value="" style="endArrow=classic;html=1;rounded=0;fontFamily=Helvetica;fontSize=12;fontColor=default;entryX=0.437;entryY=-0.082;entryDx=0;entryDy=0;entryPerimeter=0;exitX=0.5;exitY=1;exitDx=0;exitDy=0;" edge="1" parent="1" source="-zxrhz5xmNToXwiu2Zdy-14" target="-zxrhz5xmNToXwiu2Zdy-6">
          <mxGeometry width="50" height="50" relative="1" as="geometry">
            <mxPoint x="810" y="160" as="sourcePoint" />
            <mxPoint x="800" y="170" as="targetPoint" />
          </mxGeometry>
        </mxCell>
        <mxCell id="-zxrhz5xmNToXwiu2Zdy-16" value="[4]" style="text;html=1;strokeColor=none;fillColor=none;align=center;verticalAlign=middle;whiteSpace=wrap;rounded=0;fontSize=12;fontFamily=Helvetica;fontColor=default;" vertex="1" parent="1">
          <mxGeometry x="740" y="200" width="20" height="10" as="geometry" />
        </mxCell>
        <mxCell id="-zxrhz5xmNToXwiu2Zdy-17" value="" style="endArrow=classic;html=1;rounded=0;fontFamily=Helvetica;fontSize=12;fontColor=default;exitX=0.748;exitY=1.065;exitDx=0;exitDy=0;exitPerimeter=0;" edge="1" parent="1" source="-zxrhz5xmNToXwiu2Zdy-16">
          <mxGeometry width="50" height="50" relative="1" as="geometry">
            <mxPoint x="720" y="230" as="sourcePoint" />
            <mxPoint x="760" y="230" as="targetPoint" />
          </mxGeometry>
        </mxCell>
        <mxCell id="-zxrhz5xmNToXwiu2Zdy-18" value="" style="endArrow=none;html=1;rounded=0;fontFamily=Helvetica;fontSize=12;fontColor=default;" edge="1" parent="1">
          <mxGeometry width="50" height="50" relative="1" as="geometry">
            <mxPoint x="10" y="810" as="sourcePoint" />
            <mxPoint x="860" y="810" as="targetPoint" />
          </mxGeometry>
        </mxCell>
        <mxCell id="-zxrhz5xmNToXwiu2Zdy-19" value="&lt;b&gt;Legenda:&lt;/b&gt;&lt;br&gt;[1] Przycisk wylogowania&lt;span style=&quot;white-space: pre;&quot;&gt;&#x9;&lt;/span&gt;&lt;span style=&quot;white-space: pre;&quot;&gt;&#x9;&lt;span style=&quot;white-space: pre;&quot;&gt;&#x9;&lt;/span&gt;&lt;span style=&quot;white-space: pre;&quot;&gt;&#x9;&lt;span style=&quot;white-space: pre;&quot;&gt;&#x9;&lt;/span&gt;&lt;span style=&quot;white-space: pre;&quot;&gt;&#x9;&lt;span style=&quot;white-space: pre;&quot;&gt;&#x9;&lt;/span&gt;&lt;/span&gt;&lt;/span&gt;&lt;/span&gt;[2] Przycisk odświeżenia interfejsu&lt;br&gt;[3] Przycisk otwarcia ekranu domowego&lt;span style=&quot;white-space: pre;&quot;&gt;&#x9;&lt;/span&gt;&lt;span style=&quot;white-space: pre;&quot;&gt;&#x9;&lt;span style=&quot;white-space: pre;&quot;&gt;&#x9;&lt;/span&gt;&lt;span style=&quot;white-space: pre;&quot;&gt;&#x9;&lt;/span&gt;&lt;span style=&quot;white-space: pre;&quot;&gt;&#x9;&lt;/span&gt;&lt;/span&gt;[4] Przycisk otwarcia uprzednio otwartego ekranu" style="text;html=1;align=left;verticalAlign=middle;resizable=0;points=[];autosize=1;strokeColor=none;fillColor=none;dashed=1;" vertex="1" parent="1">
          <mxGeometry x="120" y="820" width="610" height="60" as="geometry" />
        </mxCell>
        <mxCell id="-zxrhz5xmNToXwiu2Zdy-20" value="login" style="rounded=0;whiteSpace=wrap;html=1;dashed=1;" vertex="1" parent="1">
          <mxGeometry x="20" y="223.75" width="100" height="20" as="geometry" />
        </mxCell>
        <mxCell id="-zxrhz5xmNToXwiu2Zdy-21" value="rola" style="rounded=0;whiteSpace=wrap;html=1;dashed=1;" vertex="1" parent="1">
          <mxGeometry x="130" y="223.75" width="100" height="20" as="geometry" />
        </mxCell>
        <mxCell id="-zxrhz5xmNToXwiu2Zdy-22" value="" style="rounded=0;whiteSpace=wrap;html=1;" vertex="1" parent="1">
          <mxGeometry x="30" y="290" width="790" height="500" as="geometry" />
        </mxCell>
        <mxCell id="-zxrhz5xmNToXwiu2Zdy-23" value="" style="rounded=0;whiteSpace=wrap;html=1;" vertex="1" parent="1">
          <mxGeometry x="820" y="290" width="20" height="480" as="geometry" />
        </mxCell>
        <mxCell id="-zxrhz5xmNToXwiu2Zdy-24" value="" style="whiteSpace=wrap;html=1;aspect=fixed;" vertex="1" parent="1">
          <mxGeometry x="820" y="290" width="20" height="20" as="geometry" />
        </mxCell>
        <mxCell id="-zxrhz5xmNToXwiu2Zdy-25" value="" style="whiteSpace=wrap;html=1;aspect=fixed;" vertex="1" parent="1">
          <mxGeometry x="820" y="770" width="20" height="20" as="geometry" />
        </mxCell>
        <mxCell id="-zxrhz5xmNToXwiu2Zdy-26" value="" style="triangle;whiteSpace=wrap;html=1;rotation=-90;" vertex="1" parent="1">
          <mxGeometry x="825" y="295" width="10" height="10" as="geometry" />
        </mxCell>
        <mxCell id="-zxrhz5xmNToXwiu2Zdy-27" value="" style="triangle;whiteSpace=wrap;html=1;rotation=90;" vertex="1" parent="1">
          <mxGeometry x="825" y="775" width="10" height="10" as="geometry" />
        </mxCell>
        <mxCell id="-zxrhz5xmNToXwiu2Zdy-28" value="=" style="rounded=0;whiteSpace=wrap;html=1;" vertex="1" parent="1">
          <mxGeometry x="820" y="310" width="20" height="60" as="geometry" />
        </mxCell>
        <mxCell id="-zxrhz5xmNToXwiu2Zdy-29" value="" style="rounded=0;whiteSpace=wrap;html=1;strokeWidth=1;" vertex="1" parent="1">
          <mxGeometry x="30" y="290" width="790" height="140" as="geometry" />
        </mxCell>
        <mxCell id="-zxrhz5xmNToXwiu2Zdy-30" value="&lt;b&gt;&amp;lt;nazwa miejscowości 1 z n&amp;gt;&lt;/b&gt;" style="rounded=0;whiteSpace=wrap;html=1;strokeColor=default;fontStyle=4;fillColor=none;align=left;dashed=1;" vertex="1" parent="1">
          <mxGeometry x="75.16" y="290" width="334.84" height="30" as="geometry" />
        </mxCell>
        <mxCell id="-zxrhz5xmNToXwiu2Zdy-31" value="" style="verticalLabelPosition=bottom;verticalAlign=top;html=1;shape=mxgraph.basic.star" vertex="1" parent="1">
          <mxGeometry x="41.29032258064516" y="297.5" width="22.580645161290324" height="15" as="geometry" />
        </mxCell>
        <mxCell id="-zxrhz5xmNToXwiu2Zdy-32" value="&amp;lt;województwo miejscowości 1 z n&amp;gt;, &amp;lt;powiat miejscowości 1 z n&amp;gt;, &amp;lt;gmina miejscowości 1 z n&amp;gt;" style="rounded=0;whiteSpace=wrap;html=1;strokeColor=default;fontStyle=0;fillColor=none;align=right;dashed=1;" vertex="1" parent="1">
          <mxGeometry x="230" y="327.5" width="580" height="20" as="geometry" />
        </mxCell>
        <mxCell id="-zxrhz5xmNToXwiu2Zdy-33" value="" style="html=1;verticalLabelPosition=bottom;align=center;labelBackgroundColor=#ffffff;verticalAlign=top;strokeWidth=2;shadow=0;dashed=0;shape=mxgraph.ios7.icons.map;" vertex="1" parent="1">
          <mxGeometry x="41.29032258064516" y="327.5" width="22.580645161290324" height="15" as="geometry" />
        </mxCell>
        <mxCell id="-zxrhz5xmNToXwiu2Zdy-34" value="" style="shape=umlActor;verticalLabelPosition=bottom;verticalAlign=top;html=1;" vertex="1" parent="1">
          <mxGeometry x="46.935483870967744" y="347.5" width="11.290322580645162" height="20" as="geometry" />
        </mxCell>
        <mxCell id="-zxrhz5xmNToXwiu2Zdy-35" value="&amp;lt;liczba ludności miejscowości 1 z n&amp;gt;" style="rounded=0;whiteSpace=wrap;html=1;strokeColor=default;fontStyle=0;fillColor=none;align=right;dashed=1;" vertex="1" parent="1">
          <mxGeometry x="230" y="347.5" width="580" height="20" as="geometry" />
        </mxCell>
        <mxCell id="-zxrhz5xmNToXwiu2Zdy-36" value="&lt;font style=&quot;font-size: 14px;&quot;&gt;&lt;b&gt;#&lt;/b&gt;&lt;/font&gt;" style="text;html=1;strokeColor=none;fillColor=none;align=center;verticalAlign=middle;whiteSpace=wrap;rounded=0;" vertex="1" parent="1">
          <mxGeometry x="44.112903225806456" y="370" width="16.935483870967744" height="20" as="geometry" />
        </mxCell>
        <mxCell id="-zxrhz5xmNToXwiu2Zdy-37" value="&amp;lt;liczba atrakcji turystycznych w miejscowości 1 z n&amp;gt;" style="rounded=0;whiteSpace=wrap;html=1;strokeColor=default;fontStyle=0;fillColor=none;align=right;dashed=1;" vertex="1" parent="1">
          <mxGeometry x="230" y="367.5" width="580" height="20" as="geometry" />
        </mxCell>
        <mxCell id="-zxrhz5xmNToXwiu2Zdy-38" value="(&amp;lt;typ miejscowości 1 z n&amp;gt;)" style="text;html=1;strokeColor=default;fillColor=none;align=right;verticalAlign=middle;whiteSpace=wrap;rounded=0;dashed=1;" vertex="1" parent="1">
          <mxGeometry x="410" y="290" width="410" height="30" as="geometry" />
        </mxCell>
        <mxCell id="-zxrhz5xmNToXwiu2Zdy-39" value="Szczegóły..." style="rounded=1;whiteSpace=wrap;html=1;" vertex="1" parent="1">
          <mxGeometry x="290" y="400" width="90" height="20" as="geometry" />
        </mxCell>
        <mxCell id="-zxrhz5xmNToXwiu2Zdy-40" value="Przydział administracyjny:" style="text;html=1;strokeColor=none;fillColor=none;align=left;verticalAlign=middle;whiteSpace=wrap;rounded=0;" vertex="1" parent="1">
          <mxGeometry x="75.16" y="327.5" width="154.84" height="22.5" as="geometry" />
        </mxCell>
        <mxCell id="-zxrhz5xmNToXwiu2Zdy-41" value="Liczba ludności:" style="text;html=1;strokeColor=none;fillColor=none;align=left;verticalAlign=middle;whiteSpace=wrap;rounded=0;" vertex="1" parent="1">
          <mxGeometry x="75.16" y="347.5" width="154.84" height="18.75" as="geometry" />
        </mxCell>
        <mxCell id="-zxrhz5xmNToXwiu2Zdy-42" value="Liczba atrakcji:" style="text;html=1;strokeColor=none;fillColor=none;align=left;verticalAlign=middle;whiteSpace=wrap;rounded=0;" vertex="1" parent="1">
          <mxGeometry x="75.16" y="366.88" width="154.84" height="21.25" as="geometry" />
        </mxCell>
        <mxCell id="-zxrhz5xmNToXwiu2Zdy-43" value="" style="rounded=0;whiteSpace=wrap;html=1;strokeWidth=1;" vertex="1" parent="1">
          <mxGeometry x="30" y="430" width="790" height="140" as="geometry" />
        </mxCell>
        <mxCell id="-zxrhz5xmNToXwiu2Zdy-44" value="&lt;b&gt;&amp;lt;nazwa miejscowości 2 z n&amp;gt;&lt;/b&gt;" style="rounded=0;whiteSpace=wrap;html=1;strokeColor=default;fontStyle=4;fillColor=none;align=left;dashed=1;" vertex="1" parent="1">
          <mxGeometry x="75.16" y="430" width="334.84" height="30" as="geometry" />
        </mxCell>
        <mxCell id="-zxrhz5xmNToXwiu2Zdy-45" value="" style="verticalLabelPosition=bottom;verticalAlign=top;html=1;shape=mxgraph.basic.star" vertex="1" parent="1">
          <mxGeometry x="41.29032258064516" y="437.5" width="22.580645161290324" height="15" as="geometry" />
        </mxCell>
        <mxCell id="-zxrhz5xmNToXwiu2Zdy-46" value="&amp;lt;województwo miejscowości 2 z n&amp;gt;, &amp;lt;powiat miejscowości 2 z n&amp;gt;, &amp;lt;gmina miejscowości 2 z n&amp;gt;" style="rounded=0;whiteSpace=wrap;html=1;strokeColor=default;fontStyle=0;fillColor=none;align=right;dashed=1;" vertex="1" parent="1">
          <mxGeometry x="230" y="467.5" width="580" height="20" as="geometry" />
        </mxCell>
        <mxCell id="-zxrhz5xmNToXwiu2Zdy-47" value="" style="html=1;verticalLabelPosition=bottom;align=center;labelBackgroundColor=#ffffff;verticalAlign=top;strokeWidth=2;shadow=0;dashed=0;shape=mxgraph.ios7.icons.map;" vertex="1" parent="1">
          <mxGeometry x="41.29032258064516" y="467.5" width="22.580645161290324" height="15" as="geometry" />
        </mxCell>
        <mxCell id="-zxrhz5xmNToXwiu2Zdy-48" value="" style="shape=umlActor;verticalLabelPosition=bottom;verticalAlign=top;html=1;" vertex="1" parent="1">
          <mxGeometry x="46.935483870967744" y="487.5" width="11.290322580645162" height="20" as="geometry" />
        </mxCell>
        <mxCell id="-zxrhz5xmNToXwiu2Zdy-49" value="&amp;lt;liczba ludności miejscowości 2 z n&amp;gt;" style="rounded=0;whiteSpace=wrap;html=1;strokeColor=default;fontStyle=0;fillColor=none;align=right;dashed=1;" vertex="1" parent="1">
          <mxGeometry x="230" y="487.5" width="580" height="20" as="geometry" />
        </mxCell>
        <mxCell id="-zxrhz5xmNToXwiu2Zdy-50" value="&lt;font style=&quot;font-size: 14px;&quot;&gt;&lt;b&gt;#&lt;/b&gt;&lt;/font&gt;" style="text;html=1;strokeColor=none;fillColor=none;align=center;verticalAlign=middle;whiteSpace=wrap;rounded=0;" vertex="1" parent="1">
          <mxGeometry x="44.112903225806456" y="510" width="16.935483870967744" height="20" as="geometry" />
        </mxCell>
        <mxCell id="-zxrhz5xmNToXwiu2Zdy-51" value="&amp;lt;liczba atrakcji turystycznych w miejscowości 2 z n&amp;gt;" style="rounded=0;whiteSpace=wrap;html=1;strokeColor=default;fontStyle=0;fillColor=none;align=right;dashed=1;" vertex="1" parent="1">
          <mxGeometry x="230" y="507.5" width="580" height="20" as="geometry" />
        </mxCell>
        <mxCell id="-zxrhz5xmNToXwiu2Zdy-52" value="(&amp;lt;typ miejscowości 2 z n&amp;gt;)" style="text;html=1;strokeColor=default;fillColor=none;align=right;verticalAlign=middle;whiteSpace=wrap;rounded=0;dashed=1;" vertex="1" parent="1">
          <mxGeometry x="380" y="680" width="410" height="30" as="geometry" />
        </mxCell>
        <mxCell id="-zxrhz5xmNToXwiu2Zdy-54" value="Przydział administracyjny:" style="text;html=1;strokeColor=none;fillColor=none;align=left;verticalAlign=middle;whiteSpace=wrap;rounded=0;" vertex="1" parent="1">
          <mxGeometry x="75.16" y="467.5" width="154.84" height="22.5" as="geometry" />
        </mxCell>
        <mxCell id="-zxrhz5xmNToXwiu2Zdy-55" value="Liczba ludności:" style="text;html=1;strokeColor=none;fillColor=none;align=left;verticalAlign=middle;whiteSpace=wrap;rounded=0;" vertex="1" parent="1">
          <mxGeometry x="75.16" y="487.5" width="154.84" height="18.75" as="geometry" />
        </mxCell>
        <mxCell id="-zxrhz5xmNToXwiu2Zdy-56" value="Liczba atrakcji:" style="text;html=1;strokeColor=none;fillColor=none;align=left;verticalAlign=middle;whiteSpace=wrap;rounded=0;" vertex="1" parent="1">
          <mxGeometry x="75.16" y="506.88" width="154.84" height="21.25" as="geometry" />
        </mxCell>
        <mxCell id="-zxrhz5xmNToXwiu2Zdy-57" value="" style="rounded=0;whiteSpace=wrap;html=1;strokeWidth=1;" vertex="1" parent="1">
          <mxGeometry x="30" y="570" width="790" height="140" as="geometry" />
        </mxCell>
        <mxCell id="-zxrhz5xmNToXwiu2Zdy-58" value="&lt;b&gt;&amp;lt;nazwa miejscowości 3 z n&amp;gt;&lt;/b&gt;" style="rounded=0;whiteSpace=wrap;html=1;strokeColor=default;fontStyle=4;fillColor=none;align=left;dashed=1;" vertex="1" parent="1">
          <mxGeometry x="75.16" y="570" width="334.84" height="30" as="geometry" />
        </mxCell>
        <mxCell id="-zxrhz5xmNToXwiu2Zdy-59" value="" style="verticalLabelPosition=bottom;verticalAlign=top;html=1;shape=mxgraph.basic.star" vertex="1" parent="1">
          <mxGeometry x="41.29032258064516" y="577.5" width="22.580645161290324" height="15" as="geometry" />
        </mxCell>
        <mxCell id="-zxrhz5xmNToXwiu2Zdy-60" value="&amp;lt;województwo miejscowości 3 z n&amp;gt;, &amp;lt;powiat miejscowości 3 z n&amp;gt;, &amp;lt;gmina miejscowości 3 z n&amp;gt;" style="rounded=0;whiteSpace=wrap;html=1;strokeColor=default;fontStyle=0;fillColor=none;align=right;dashed=1;" vertex="1" parent="1">
          <mxGeometry x="230" y="607.5" width="580" height="20" as="geometry" />
        </mxCell>
        <mxCell id="-zxrhz5xmNToXwiu2Zdy-61" value="" style="html=1;verticalLabelPosition=bottom;align=center;labelBackgroundColor=#ffffff;verticalAlign=top;strokeWidth=2;shadow=0;dashed=0;shape=mxgraph.ios7.icons.map;" vertex="1" parent="1">
          <mxGeometry x="41.29032258064516" y="607.5" width="22.580645161290324" height="15" as="geometry" />
        </mxCell>
        <mxCell id="-zxrhz5xmNToXwiu2Zdy-62" value="" style="shape=umlActor;verticalLabelPosition=bottom;verticalAlign=top;html=1;" vertex="1" parent="1">
          <mxGeometry x="46.935483870967744" y="627.5" width="11.290322580645162" height="20" as="geometry" />
        </mxCell>
        <mxCell id="-zxrhz5xmNToXwiu2Zdy-63" value="&amp;lt;liczba ludności miejscowości 3 z n&amp;gt;" style="rounded=0;whiteSpace=wrap;html=1;strokeColor=default;fontStyle=0;fillColor=none;align=right;dashed=1;" vertex="1" parent="1">
          <mxGeometry x="230" y="627.5" width="580" height="20" as="geometry" />
        </mxCell>
        <mxCell id="-zxrhz5xmNToXwiu2Zdy-64" value="&lt;font style=&quot;font-size: 14px;&quot;&gt;&lt;b&gt;#&lt;/b&gt;&lt;/font&gt;" style="text;html=1;strokeColor=none;fillColor=none;align=center;verticalAlign=middle;whiteSpace=wrap;rounded=0;" vertex="1" parent="1">
          <mxGeometry x="44.11290322580646" y="650" width="16.935483870967744" height="20" as="geometry" />
        </mxCell>
        <mxCell id="-zxrhz5xmNToXwiu2Zdy-65" value="&amp;lt;liczba atrakcji turystycznych w miejscowości 3 z n&amp;gt;" style="rounded=0;whiteSpace=wrap;html=1;strokeColor=default;fontStyle=0;fillColor=none;align=right;dashed=1;" vertex="1" parent="1">
          <mxGeometry x="230" y="647.5" width="580" height="20" as="geometry" />
        </mxCell>
        <mxCell id="-zxrhz5xmNToXwiu2Zdy-66" value="(&amp;lt;typ miejscowości 3 z n&amp;gt;)" style="text;html=1;strokeColor=default;fillColor=none;align=right;verticalAlign=middle;whiteSpace=wrap;rounded=0;dashed=1;" vertex="1" parent="1">
          <mxGeometry x="410" y="570" width="410" height="30" as="geometry" />
        </mxCell>
        <mxCell id="-zxrhz5xmNToXwiu2Zdy-68" value="Przydział administracyjny:" style="text;html=1;strokeColor=none;fillColor=none;align=left;verticalAlign=middle;whiteSpace=wrap;rounded=0;" vertex="1" parent="1">
          <mxGeometry x="75.16" y="607.5" width="154.84" height="22.5" as="geometry" />
        </mxCell>
        <mxCell id="-zxrhz5xmNToXwiu2Zdy-69" value="Liczba ludności:" style="text;html=1;strokeColor=none;fillColor=none;align=left;verticalAlign=middle;whiteSpace=wrap;rounded=0;" vertex="1" parent="1">
          <mxGeometry x="75.16" y="627.5" width="154.84" height="18.75" as="geometry" />
        </mxCell>
        <mxCell id="-zxrhz5xmNToXwiu2Zdy-70" value="Liczba atrakcji:" style="text;html=1;strokeColor=none;fillColor=none;align=left;verticalAlign=middle;whiteSpace=wrap;rounded=0;" vertex="1" parent="1">
          <mxGeometry x="75.16" y="646.88" width="154.84" height="21.25" as="geometry" />
        </mxCell>
        <mxCell id="-zxrhz5xmNToXwiu2Zdy-71" value="&lt;b&gt;&amp;lt;nazwa miejscowości 4 z n&amp;gt;&lt;/b&gt;" style="rounded=0;whiteSpace=wrap;html=1;strokeColor=default;fontStyle=4;fillColor=none;align=left;dashed=1;" vertex="1" parent="1">
          <mxGeometry x="75.16" y="710" width="334.84" height="30" as="geometry" />
        </mxCell>
        <mxCell id="-zxrhz5xmNToXwiu2Zdy-72" value="" style="verticalLabelPosition=bottom;verticalAlign=top;html=1;shape=mxgraph.basic.star" vertex="1" parent="1">
          <mxGeometry x="41.29032258064516" y="717.5" width="22.580645161290324" height="15" as="geometry" />
        </mxCell>
        <mxCell id="-zxrhz5xmNToXwiu2Zdy-73" value="(&amp;lt;typ miejscowości 4 z n&amp;gt;)" style="text;html=1;strokeColor=default;fillColor=none;align=right;verticalAlign=middle;whiteSpace=wrap;rounded=0;dashed=1;" vertex="1" parent="1">
          <mxGeometry x="410" y="710" width="410" height="30" as="geometry" />
        </mxCell>
        <mxCell id="-zxrhz5xmNToXwiu2Zdy-74" value="&amp;lt;województwo miejscowości 4 z n&amp;gt;, &amp;lt;powiat miejscowości 4 z n&amp;gt;, &amp;lt;gmina miejscowości 4 z n&amp;gt;" style="rounded=0;whiteSpace=wrap;html=1;strokeColor=default;fontStyle=0;fillColor=none;align=right;dashed=1;" vertex="1" parent="1">
          <mxGeometry x="229.35" y="750" width="580" height="20" as="geometry" />
        </mxCell>
        <mxCell id="-zxrhz5xmNToXwiu2Zdy-75" value="" style="html=1;verticalLabelPosition=bottom;align=center;labelBackgroundColor=#ffffff;verticalAlign=top;strokeWidth=2;shadow=0;dashed=0;shape=mxgraph.ios7.icons.map;" vertex="1" parent="1">
          <mxGeometry x="40.64032258064516" y="750" width="22.580645161290324" height="15" as="geometry" />
        </mxCell>
        <mxCell id="-zxrhz5xmNToXwiu2Zdy-76" value="Sortowanie" style="rounded=1;whiteSpace=wrap;html=1;" vertex="1" parent="1">
          <mxGeometry x="720" y="265" width="120" height="20" as="geometry" />
        </mxCell>
        <mxCell id="-zxrhz5xmNToXwiu2Zdy-77" value="Filtrowanie" style="rounded=1;whiteSpace=wrap;html=1;" vertex="1" parent="1">
          <mxGeometry x="590" y="265" width="120" height="20" as="geometry" />
        </mxCell>
        <mxCell id="-zxrhz5xmNToXwiu2Zdy-78" value="Edytuj" style="rounded=1;whiteSpace=wrap;html=1;" vertex="1" parent="1">
          <mxGeometry x="390" y="400" width="90" height="20" as="geometry" />
        </mxCell>
        <mxCell id="-zxrhz5xmNToXwiu2Zdy-79" value="Usuń" style="rounded=1;whiteSpace=wrap;html=1;" vertex="1" parent="1">
          <mxGeometry x="490" y="400" width="90" height="20" as="geometry" />
        </mxCell>
        <mxCell id="-zxrhz5xmNToXwiu2Zdy-83" value="Szczegóły..." style="rounded=1;whiteSpace=wrap;html=1;" vertex="1" parent="1">
          <mxGeometry x="290" y="540" width="90" height="20" as="geometry" />
        </mxCell>
        <mxCell id="-zxrhz5xmNToXwiu2Zdy-84" value="Edytuj" style="rounded=1;whiteSpace=wrap;html=1;" vertex="1" parent="1">
          <mxGeometry x="390" y="540" width="90" height="20" as="geometry" />
        </mxCell>
        <mxCell id="-zxrhz5xmNToXwiu2Zdy-85" value="Usuń" style="rounded=1;whiteSpace=wrap;html=1;" vertex="1" parent="1">
          <mxGeometry x="490" y="540" width="90" height="20" as="geometry" />
        </mxCell>
        <mxCell id="-zxrhz5xmNToXwiu2Zdy-86" value="Szczegóły..." style="rounded=1;whiteSpace=wrap;html=1;" vertex="1" parent="1">
          <mxGeometry x="290" y="680" width="90" height="20" as="geometry" />
        </mxCell>
        <mxCell id="-zxrhz5xmNToXwiu2Zdy-87" value="Edytuj" style="rounded=1;whiteSpace=wrap;html=1;" vertex="1" parent="1">
          <mxGeometry x="390" y="680" width="90" height="20" as="geometry" />
        </mxCell>
        <mxCell id="-zxrhz5xmNToXwiu2Zdy-88" value="Usuń" style="rounded=1;whiteSpace=wrap;html=1;" vertex="1" parent="1">
          <mxGeometry x="490" y="680" width="90" height="20" as="geometry" />
        </mxCell>
      </root>
    </mxGraphModel>
  </diagram>
</mxfile>
